<?xml version="1.0" encoding="UTF-8"?>
<!DOCTYPE svg PUBLIC "-//W3C//DTD SVG 1.1//EN" "http://www.w3.org/Graphics/SVG/1.1/DTD/svg11.dtd">
<!-- Creator: CorelDRAW -->
<svg xmlns="http://www.w3.org/2000/svg" xml:space="preserve" width="381mm" height="381mm" version="1.1" style="shape-rendering:geometricPrecision; text-rendering:geometricPrecision; image-rendering:optimizeQuality; fill-rule:evenodd; clip-rule:evenodd"
viewBox="0 0 38100 38100"
 xmlns:xlink="http://www.w3.org/1999/xlink"
 xmlns:xodm="http://www.corel.com/coreldraw/odm/2003">
 <defs>
  <style type="text/css">
   <![CDATA[
    .fil0 {fill:#D5A156}
    .fil1 {fill:#E0AB60}
    .fil2 {fill:#FEFEFD}
   ]]>
  </style>
 </defs>
 <g id="Capa_x0020_1">
  <metadata id="CorelCorpID_0Corel-Layer"/>
  <g id="_2685458736240">
   <path class="fil0" d="M9396.88 9263.46c-317.78,-200.84 -651.17,-425.4 -1019.01,-575.47 -787.39,-321.2 -737.26,-146.84 -1363.42,-74.51 135.55,-120.98 148.12,-57.77 180.65,-225.12 -90.04,-123.33 -77.36,-102.55 -255.14,-128.58 -108.16,-15.84 -208.35,-25.39 -306.97,-38.38 -3410.97,-449.99 -4802.17,2128.45 -4013.16,3322.41 158.9,240.45 468.76,540.75 857.23,586.36 818.29,96.04 1006.52,-465.63 825.45,-600.67 -202.85,-72.6 -304.63,49.62 -483.24,-103.45 -428.42,-367.12 329.38,-961.92 788.16,-526.8 231.01,219.07 180.69,636.51 45.22,914.71 -718.16,1474.47 -3311.84,-39.46 -2071.68,-2156.9 1172.68,-2002.25 4178.13,-1951.49 6216.39,-912.44 308.14,157.07 519.33,301.88 794.65,451.79 -64.04,72.32 129.88,94.89 -195.13,67.05z"/>
   <path class="fil0" d="M28224.43 11505.76c1096.88,8.82 1642.87,81.1 2667.2,-394.67 188.31,-87.46 551.87,-316.93 713.68,-357.98l-158.4 180.56c-405.11,331.2 -942.21,630.92 -1449.6,799.55 -351.72,116.9 -631.07,152.86 -1043.12,205.98 -483.3,62.28 -729.96,-35.23 -1172.24,-48.29 -57.23,-245.55 77.32,-162.43 169,-279.92 111.07,-142.35 69.83,-114.84 273.48,-105.23z"/>
   <path class="fil0" d="M28510.21 9071.69c237.94,-101.85 544.8,-300.97 790.46,-416.06 2073.96,-971.64 5067.6,-916.77 6102.74,1116.18 849.83,1669.08 -570.3,2916.38 -1571.99,2570.16 -282.12,-97.53 -505.41,-323.11 -609.25,-603.15 -140.82,-379.86 -107.76,-723.61 170.19,-898.45 539.25,-339.22 1096.23,303.88 690.59,602.19 -230.39,169.43 -540.13,-83.35 -513.47,278.73 30.58,415.88 1091.79,759.78 1719.07,-153.44 777.09,-1131.33 -459.5,-3781.08 -3997.09,-3350.39 -105.55,12.84 -196.77,22.66 -304.55,38.74 -172.45,25.73 -188.89,37.37 -255.18,132.16 35.16,194.72 20.82,77.31 66.46,134.43l113.37 89.12c-651.9,-78.43 -606.79,-236.63 -1331.36,60.57 -422.04,173.1 -654.16,379.16 -1001.57,545.69 -90.85,-58.84 -96.9,110.68 -68.42,-146.48z"/>
   <path class="fil0" d="M6942.7 10298.91c-273.53,23.15 -490.48,-152.95 -577.34,-335.16 -60.51,-126.89 -76.22,-238.35 -69.57,-404.89l94.19 -352.3c-45.82,556.62 47.47,1079.74 656.34,925.4 19.42,-297.78 -86.77,-168.8 -59.29,-494.3 558.3,-287.07 695.46,598.6 -44.33,661.25z"/>
   <path class="fil0" d="M28117.08 6447.82l-42.9 119.11c-218.71,-143.04 -13.57,60.74 -105.07,-90.26l147.97 -28.85z"/>
   <path class="fil0" d="M19329 6487c162.57,-613.22 905.61,-1515.6 1772.54,-1379.3 1033.45,162.48 1028.44,1332.72 142.51,1588.89 369.36,-874.27 -697.1,-1260.64 -1466.68,-679.84 -191.79,144.73 -310.12,373.45 -448.37,470.25z"/>
   <path class="fil0" d="M8287.38 7192.04c124.83,-175.59 26.16,-267.33 216.6,-334.68 478.43,-87.06 342.24,835.49 -328.13,517.68 -551.98,-261.69 -425.33,-859.94 -129.89,-1038.38 -53.1,197.86 -141.57,256.29 -114.67,536.81 22.1,230.43 111.16,315.24 356.09,318.57z"/>
   <path class="fil0" d="M18655.82 6586.35c-18.37,70.32 -36.25,67.25 16.67,54.75l0.72 -0.15 0.7 -0.17 0.72 -0.17 0.71 -0.17 0.16 -0.03 0.56 -0.12 0.73 -0.17 0.75 -0.17 0.73 -0.17 0.65 -0.16 0.14 -0.02 0.75 -0.17 0.78 -0.18 0.77 -0.17 0.82 -0.17 0.34 -0.07 0.46 -0.11 0.78 -0.17 0.82 -0.18 0.84 -0.17 0.85 -0.17 0.04 -0.02 0.8 -0.17 0.85 -0.17 0.85 -0.19 0.89 -0.17 0.54 -0.12 0.33 -0.05 0.88 -0.17 0.91 -0.19 0.92 -0.19 0.89 -0.17 0.2 -0.05 0.73 -0.13 0.92 -0.19 0.94 -0.17 0.97 -0.19 0.77 -0.15 0.19 -0.02 0.95 -0.19 1.01 -0.17 0.99 -0.19 0.97 -0.18 0.43 -0.07 0.59 -0.12 1.03 -0.17 1.02 -0.19 1.04 -0.17 1.04 -0.19 0 0 1.04 -0.17 1.06 -0.19 1.07 -0.17 1.09 -0.18 0.67 -0.11 0.42 -0.06 1.11 -0.19 1.09 -0.17 1.13 -0.19 1.12 -0.17 0.24 -0.05 0.91 -0.14 1.14 -0.17 1.18 -0.17 1.17 -0.19 0.92 -0.13 0.24 -0.04 1.21 -0.17 1.2 -0.17 1.19 -0.17 1.21 -0.17 0.51 -0.07 0.73 -0.1 1.25 -0.17 1.23 -0.17 1.26 -0.17 1.29 -0.17c150.07,-19.63 39.87,64.47 121.08,-76.27l-231.8 2.86 -0.11 0 -0.06 -0.15c-200.98,-637.17 -829.78,-1512.73 -1715.9,-1459.09 -1028.35,62.27 -1236.37,1323.23 -226.33,1599.18 -101.18,-251 -122.27,-531.83 58.28,-727.25 314.64,-340.52 992.8,-280.08 1435.29,67.23 221.66,173.95 267.63,343.32 448.66,519.93l0.17 0.15c10.21,9.95 20.82,19.9 31.9,29.89z"/>
   <path class="fil0" d="M29951.5 6444.99c330.32,375.56 98.19,798.95 -270.55,937.4 -579.18,217.48 -708.51,-550.42 -256.44,-512.43 130.03,51.46 66.84,183.38 216.56,348.71 555.96,-38.67 359.76,-687.78 310.43,-773.68z"/>
   <path class="fil0" d="M30941.04 10095.62c-13.79,-13.62 -71.22,69.93 -34.2,-148.18 400.17,-412.28 -478.72,-650.31 -498.72,-84.32 -12.7,359.11 585.1,641.71 957.39,383.37 542.79,-376.64 362.17,-1328 -324.34,-1661.14 -101.87,-49.43 -185.67,-65.65 -257.78,-153.68 70.8,-126.69 7.95,-88.22 203.57,-128.16 74.04,-15.11 227.87,-28.25 303.8,-37.24 673.03,-79.45 1233.05,-64.09 1895.27,89.67 1809.79,420.22 2698.96,2160.86 2097.81,3123.31 -746.99,1195.95 -1983.49,349.73 -1614.56,93.83 223.01,-55.31 334.76,29.02 490.67,-139.82 418.98,-453.65 -400.64,-1012.68 -877.55,-573.94 -407.98,375.3 -153.95,1392.32 677.74,1572.05 1087.62,235.03 2555.83,-1310.39 1241.43,-3060.27 -771.7,-1027.43 -2127.65,-1539.11 -3965.94,-1339.16 -1568.71,170.65 -2813.15,979.86 -3743.02,1692.54l-146.84 17.36c-26.53,-46.48 -32.24,-16.75 -35.33,-105.22 854.49,-1567.88 -113.47,-2000.65 565.85,-2885.69 55.28,-72.06 69.96,-71.46 124.16,-131.17 31.67,-34.91 48.85,-51.48 59.43,-62.05l57.2 -109.89c289.68,-163.4 739.85,-541.96 1334.09,-343.39 519.66,173.66 763.9,976.77 233.23,1057.07l-45.34 -65.6c-41.13,-72.86 -148.07,-414.55 -403.92,-242.97 -193.82,129.99 -171.11,441.58 37.41,560.8 420.78,240.59 961.1,-284.42 882.43,-677.17 -140.21,-699.92 -1150.56,-1245.79 -2185.87,-259.89 -230.15,177.31 -276.02,467.87 -450.41,586.77 -221.61,-63.38 -132.03,-152.16 -437.77,-488.49 -464.94,-511.48 -1209.24,-949.87 -2003.13,-799.53 -923,174.77 -1842.11,940.38 -1875.71,1922.31 -33.42,976.59 953.14,1925.59 2008.37,1547.43 1275.13,-456.94 600.27,-2221.06 -141.2,-2136.79 131.48,232.2 315.76,782.31 126.82,1081.31 -190.57,301.63 -679.92,343.83 -980.64,165.12 -722.04,-429.07 -458.65,-1472.43 42.08,-1927.58 1219.36,-1108.29 3147.23,124.78 3153.5,1744.49 4.25,1104.81 -498.34,1758.04 -1142.32,2344.27 -350.8,319.36 -629.01,-21.3 -1490.18,-385.08 -1146.5,-484.28 -2685.95,-966.97 -3983.23,-582.3 -219.02,64.93 -334.74,164.35 -596.59,149.28 -227.68,-189.54 -533.83,-817.04 -471.41,-1259.38 33.99,-240.58 4.33,-470.38 -137.89,-653.71 -163.63,-210.85 -300.77,-213.42 -532.58,-328.35 -21.19,-720.33 917.15,-2034.18 1911.61,-1570.69 414.48,193.17 284.42,498.93 205.99,877.15 370.39,-60.72 770.93,-441.29 784.42,-848.26 25.99,-784.24 -1481.87,-1482.87 -2445.57,57.1 -270.51,432.24 -145.08,465.9 -354.11,536.98 -43.68,-60.36 -29.16,-15.5 -53.27,-114.7 -72.58,-299.04 114.69,-704.66 200.15,-975.36 86.99,-275.66 234.27,-746.62 244.88,-1056.67 23.6,-691.52 -303.76,-1593.49 -586.81,-2016.01 -289.33,321.9 -606.36,1386.32 -589.7,2016.02 17.39,657.52 517.6,1619.48 456.09,1990.14 -45.44,274.08 76.56,-218.55 -23.13,80.74l-38.04 75.23c-223.25,-64.11 -85.29,-81.11 -345.86,-501.96 -977.07,-1578.13 -2435.1,-890.62 -2463.03,-127.25 -14.85,406.17 436.28,880.73 793.59,884 -431.69,-717.31 409.65,-1219.36 1118.35,-856.09 401.53,205.8 1013.01,921.74 996.16,1546.82 -218.67,115.04 -792.21,224.58 -672.96,991.61 76.92,494.47 -268.34,960.22 -451.04,1256.31 -598.8,16.62 -1462.81,-895.09 -4565.4,413.73 -1433.71,604.8 -1188.6,778.51 -1849.34,82.43 -418.51,-440.87 -835.71,-1098.06 -837.52,-1983.12 -3.29,-1586.61 1874.91,-2900.91 3124.07,-1818.35 501.28,434.42 830.62,1429.64 144.51,1919.87 -295.34,211.04 -759.74,196.89 -997.83,-70.89 -299.25,-336.54 20.13,-861.55 66.2,-1150.17 -410.87,31.66 -813.25,572.72 -845.97,999.74 -45.38,591.39 324.3,999.49 732.36,1151.72 1043.13,389.12 2058.55,-611.72 2004.18,-1540.94 -91.97,-1572.34 -2364.8,-2825.94 -3858.22,-1159.95 -87.06,97.14 -135.91,145.56 -213.29,265.53 -97.82,151.64 -72.68,197.32 -238.54,254.86 -144.4,-82.49 -120.48,-141.09 -208.09,-285.87 -559.43,-924.64 -1779.24,-1153.97 -2294.29,-413.74 -367.02,527.5 -37.29,1149.81 550.9,1119.88 267.32,-13.6 502.31,-260.59 337.11,-551.58 -74.29,-130.83 -332.32,-271.5 -470.28,21.93l-81.03 195.32c-847.34,-159.44 265.62,-2011.15 1701.51,-508.59 790.05,826.76 -65.99,1203.07 504.84,2651.34l161.59 349.54c20.84,130.08 -2.34,104.78 -105.68,134.2 -918.67,-695.41 -2188.34,-1550.8 -3701.08,-1732.05 -1838.76,-220.34 -3274.8,243.12 -4064.05,1295.3 -1366.59,1821.83 153.27,3290.03 1190.98,3091.21 848.15,-162.51 1138.37,-1266.24 661.31,-1609.39 -304.31,-218.88 -769.56,-103.52 -900.49,162.46 -104.97,213.25 5.18,407.77 120.2,492.99 169.85,125.82 289.66,61.49 505.39,96.97 -23.21,711.75 -1176.29,745.65 -1696.54,-118.18 -579.36,-961.99 325.41,-2684.93 2084.09,-3095.41 424.29,-99.02 2246.91,-270.26 2436.24,69.33l-77.03 64.93c-186.98,118.09 -539.66,188.24 -738.25,663.07 -189.08,452 -69.71,909 262.17,1104.04 378,222.16 973.69,-67.74 923.99,-439.21 -22.51,-168.45 -242.54,-376.21 -448.56,-282.29 -261.78,119.33 -79.18,332.67 -54.65,549.36 -736.46,134.6 -792.56,-877.41 -184.88,-1298.92 1008.34,-699.43 2366.45,370.94 3257.14,1008.11l1224.62 855.39c359.79,241.15 -12.99,327.77 -440.95,484.11 -255.5,93.32 -464.89,145.24 -735.52,220.15 -1010.42,279.68 -2244.2,148.82 -3190.45,-328.35 -260.78,-131.5 -992.57,-549.28 -1101.78,-718.17 234.42,587.68 1616.06,1348.4 2404.85,1532.02 1241.87,289.08 2348.16,39.7 3359.11,-359.99 1122.93,-443.99 486.03,-210.75 1577.12,-70.75 582.09,74.7 1305.77,52.5 1859.75,-48.85 1955.27,-357.69 2432.95,-1274.8 2690.73,-1300.88 309.23,27.25 755.84,433.45 888.07,640.33 -129.43,-349.01 -666.84,-736.3 -689.24,-801.44 -53.34,-155.11 199.53,-437.22 319.65,-734.11 195.71,-483.87 305.65,-115.26 697.58,-103.22 261.89,8.05 297.97,-141.47 603.13,-131.89 100.32,128.46 144.5,325.65 232.66,476.18 100.31,171.27 216.83,252.18 214.48,493.04 -181.2,234.79 -514.87,393.06 -650.17,722.8 868.04,-912.52 913.48,-494.78 1420.08,-120.75 1063.41,785.16 2642.29,1078.36 3983.12,909.32 294.86,-37.17 626.56,-168.55 822.03,-180.79 610.05,-38.23 2618.38,1724.95 5455.87,60.14 274.94,-161.32 942.79,-696.49 1022.61,-940.58 -185.3,181.41 -789.05,527.4 -1102.63,678.41 -1248.33,601.04 -2577.41,563.05 -3851.11,115.81l-500.46 -191.35c-190.18,-110.2 -71.64,11.29 -132.52,-143.41 92.11,-187.96 497.97,-381.41 673.29,-510.44 234.83,-172.81 452.62,-322.67 682,-487.24 854.45,-613.15 2233,-1704 3230.78,-1054.7 222.56,144.83 438.27,345.42 463.2,709.88 26.79,391.66 -174.92,661.62 -571.17,624.19zm-12169.45 -2146.56c619.77,-283.73 924.11,652.16 392.67,883.4 -597.53,260.01 -992.19,-608.92 -392.67,-883.4zm-5986.77 3081.45c120.21,-151.43 777.09,-407.3 953.02,-483.75 350.96,-152.47 692.08,-283.75 1068.03,-405.87 608.22,-197.55 1927.7,-466.8 2576.32,-191.25 -16.71,208.41 -197.06,293.36 -342.25,392.2 -1096.35,746.21 -2672.55,1094.75 -3990.94,821.37 -175.88,-36.47 -182.61,-30.11 -264.18,-132.7zm7756 -1087.68c1127.34,-404.22 3033.62,304.16 4121.47,822.89 82.42,39.31 154.21,65.97 242.99,103.47 197.07,83.26 168.62,42.15 205.34,227.47 -822.51,228.33 -1795.3,194.16 -2637.73,-40.71 -412.39,-114.98 -747.56,-240.03 -1098.04,-419.83l-689.42 -437.8c-118.88,-94.17 -128.95,-68.92 -144.61,-255.49z"/>
   <path class="fil1" d="M20998.3 14215.98c2747.16,-10.55 2306.18,1571.48 2295.38,4374.7l2212.66 0.02 0.31 -4374.63 3616.77 -1.52c1972.07,55.87 3076.27,1102.11 2793.31,3147.18 -55.76,402.65 -297.23,1057.34 -566.74,1229.02l1801.95 1.84c281.85,1.85 291.18,-8.08 446.46,-140.67 540.28,-461.26 874.18,-902.79 874.18,-1704.01 0,-391.79 -262.09,-1009.73 -493.64,-1308.48 -451.96,-583.12 -1070.72,-953.3 -1798.78,-1132.09 -213.75,-52.5 -401.7,-91.58 -608.12,-125.84 -597.2,-99.15 -515.78,-74.47 -1024.17,-98.24 -145.96,-6.82 -202.45,-44.18 -257.08,-44.18l-9292.8 -0.05 0.31 176.95z"/>
   <path class="fil1" d="M4582.28 14216.07c2718.56,0 2423.78,1212.55 2381.44,4375.28l2214.18 -0.87 -0.62 -4374.41 2705.16 0.03c166.46,6.12 91.22,42.87 346.49,43.07 581.96,0.46 1207.09,198.78 1627.38,376.67 401.63,170 894.74,570.88 1146.93,899.84 594.47,775.53 863.33,1510.55 1033.18,2486.17l67.14 568.9 2515.92 -0.24c-111.73,-982.09 -1043.95,-2243.72 -1785.66,-2938.63l-661.9 -504.02c-269.66,-180.4 -471.27,-287.63 -778.99,-430.7 -877.4,-407.93 -1479.77,-481.86 -2370.68,-610.66 -1003,-145 -7277.41,-57.86 -8440.91,-68.39l0.94 177.96z"/>
   <path class="fil1" d="M4582.06 24737.31l0.31 177.04c1436.92,3.02 2874.31,-0.15 4311.43,0.02 1429.49,0.17 2965.62,63.02 4325.25,-46.91 611.55,-49.45 1254.81,-222.77 1766.5,-391.66 1097.02,-362.09 1472.09,-678.36 2196.17,-1303.99l410.18 -411.19c182.95,-185.3 777.23,-1080.46 811.26,-1358.47l-2405.93 0.02 -295.47 932.37c-701.8,1759.27 -2008.4,2416.46 -3949.05,2403.61 -857.83,-5.7 -1717.22,-0.31 -2575.26,-0.58l-0.06 -3336.55 -2211.07 1.09c23.83,2369.85 56.66,3340.28 -2384.26,3335.2z"/>
   <path class="fil1" d="M23294.01 22681.9c-0.02,830.31 -218.76,1589.51 -966.55,1877.88 -515.92,198.95 -819.63,177.69 -1329.26,177.75l-0.36 177.66 6804.43 -0.63 -0.17 -177.04c-652.67,0 -1386.86,-22.92 -1831.01,-508.82 -598.99,-655.28 -464.63,-1897.77 -464.72,-2826.19l-2212.75 -0.4 0.39 1279.79z"/>
   <path class="fil1" d="M31826.63 24914.35l4075.24 0.19 -0.1 -176.94c-673.15,-0.22 -1296.4,23.21 -1854.69,-394.91 -422.79,-316.64 -1206.72,-1430.09 -1523.58,-1905.09l-693.15 -1035.38 -2429.13 -0.09 587.89 848.59c220.09,305.79 427.67,593.03 624.76,891.96l753.84 1064.83c136.52,199.99 418.73,561.43 458.92,706.84z"/>
   <path class="fil1" d="M10539.71 19736.57l0 86.62c170.21,3.8 101.61,-11.85 216.57,43.32l0 952.89c-116.94,9.74 -117.84,20.33 -216.57,43.33l693.02 86.63c-71,-196.17 10.04,-12.09 -102.32,-114.24 -140.25,-127.49 -114.26,127.71 -114.26,-708.73 0,-450.3 563.1,-554.17 563.1,-86.62l0 649.7c0,175.56 -28.85,69.66 -89.56,127.03 -144.19,136.29 -55.37,-65.11 -127.03,132.86l693.01 0c-70.98,-196.17 10.04,-12.09 -102.3,-114.24 -135.06,-122.78 -114.24,138.17 -114.24,-665.41 0,-594.41 563.08,-488.13 563.08,-216.58l0 736.34c0,208.86 -136.3,38.11 -216.58,259.89l693.02 0c-41.55,-114.78 -51.56,-85.97 -216.56,-173.25 0,-733.36 147.16,-1212.79 -433.16,-1212.79 -169.23,0 -319.49,140.48 -433.11,216.56 -310.82,-464.14 -674.21,-78.71 -822.98,0l0 -216.56c-147.86,78.23 -247.58,130.03 -433.13,173.25z"/>
   <path class="fil1" d="M5818.5 19996.46c0,277.6 110.14,554.25 247.31,705.58 363.81,401.29 1086.02,345.06 1457.56,84.81 165.51,-115.93 121.13,-12.5 71.01,-140.7 -37.47,-40.09 -260.96,87.5 -289.81,99.2 -1347.55,546.97 -1609.77,-1658.49 -446.53,-1658.49 483.63,0 562.24,187.63 649.69,563.07l86.65 -563.07c-620.19,-297.57 -1775.88,-145.85 -1775.88,909.6z"/>
   <path class="fil1" d="M22494.32 19086.86c419.74,97.79 303.18,-82.42 303.18,1602.61 0,157.33 -156.27,139.02 -303.18,173.26l1559.3 86.63c78.81,-164.3 94.4,-355.47 173.26,-519.78 -246.68,65.87 -186.45,389.82 -433.16,389.82l-736.34 0 0 -822.94c617.19,0 661.86,-71.51 693.01,303.18l0 -736.32c-82.9,355.86 49.52,303.19 -693.01,303.19l0 -736.34c884.8,0 851.48,-88.88 952.9,346.51l86.65 0c0,-219.6 -43.31,-235.98 -43.31,-476.43l-1559.3 86.61z"/>
   <path class="fil2" d="M17383.3 20169.71c0,905.73 866.28,957.25 866.28,86.62 0,-718.3 -866.28,-765.96 -866.28,-86.62z"/>
   <path class="fil2" d="M8114.13 20169.71c0,905.73 866.28,957.25 866.28,86.62 0,-718.3 -866.28,-765.96 -866.28,-86.62z"/>
   <path class="fil1" d="M27865.21 19736.57l216.59 86.62 0 996.21c-116.95,9.74 -117.85,20.33 -216.59,43.33l693.03 86.63c-138.3,-382.12 -216.56,301.15 -216.56,-779.65 0,-529.02 315.04,-427.43 476.43,-389.83 75.93,325.81 43.34,520.82 43.34,909.59 0,175.56 -28.85,69.66 -89.56,127.03 -144.19,136.29 -55.37,-65.11 -127.03,132.86l693.03 -86.63c-98.73,-23 -99.61,-33.59 -216.56,-43.33 0,-640.77 124.28,-1256.08 -346.53,-1256.08 -231.16,0 -279.96,157.31 -433.12,259.87l0 -259.87c-138.51,73.28 -304.7,133.23 -476.47,173.25z"/>
   <path class="fil1" d="M17383.3 20169.71c0,-679.34 866.28,-631.68 866.28,86.62 0,870.63 -866.28,819.11 -866.28,-86.62zm-259.91 86.62c0,1034.49 1386.06,966.09 1386.06,-43.31 0,-906.56 -1386.06,-844.9 -1386.06,43.31z"/>
   <path class="fil1" d="M8114.13 20169.71c0,-679.34 866.28,-631.68 866.28,86.62 0,870.63 -866.28,819.11 -866.28,-86.62zm-259.87 86.62c0,1034.49 1386.03,966.09 1386.03,-43.31 0,-906.56 -1386.03,-844.9 -1386.03,43.31z"/>
   <path class="fil1" d="M31806.78 20602.84c0,-243.16 310.4,-345.26 476.44,-433.13 0,378.04 34.61,693.02 -346.49,693.02 -81.54,0 -129.95,-159.77 -129.95,-259.89zm-173.27 -606.38c266.35,-71.14 58.95,-303.2 433.16,-303.2 122.92,0 216.55,149.5 216.55,259.87 0,257.86 -736.34,223.03 -736.34,693.02 0,341.49 292.01,470.79 736.34,173.25 80.12,300.06 383.25,168.98 498.53,26.19 120.89,-149.72 38.91,-57.55 -90.71,-45.93 -153.75,13.76 -153.2,85.27 -147.64,-586.93 3.61,-439.16 3.39,-649.41 -390.11,-649.41 -103.41,0 -328.52,55.67 -385.76,90.71 -108.58,66.46 -120.04,174.72 -134.02,342.43z"/>
   <path class="fil1" d="M26955.65 20039.77c42.38,-509.52 563.05,-389.72 563.05,-86.64 0,133.03 -353.57,86.64 -563.05,86.64zm-303.24 216.56c0,873.02 729.86,858.7 1049.74,526.7 269.56,-279.79 -217.18,36.37 -443.32,36.37 -243.93,0 -346.53,-406.58 -346.53,-693.01 263.73,0 866.29,67.42 866.29,-129.93 0,-690.32 -1126.18,-531.95 -1126.18,259.87z"/>
   <path class="fil1" d="M13225.16 20039.77c42.42,-509.52 563.08,-389.72 563.08,-86.64 0,133.03 -353.56,86.64 -563.08,86.64zm-303.2 216.56c0,873.02 729.86,858.7 1049.73,526.7 129.96,-134.9 26.53,-117.7 -52.34,-88.27 -59.75,22.28 -737.5,493.72 -737.5,-568.37 263.72,0 866.27,67.42 866.27,-129.93 0,-690.32 -1126.16,-531.95 -1126.16,259.87z"/>
   <path class="fil1" d="M20848.37 20039.77c42.41,-509.52 563.11,-389.72 563.11,-86.64 0,133.03 -353.59,86.64 -563.11,86.64zm-303.18 216.56c0,873.02 729.84,858.7 1049.72,526.7 129.98,-134.9 26.55,-117.7 -52.35,-88.27 -59.73,22.28 -737.5,493.72 -737.5,-568.37 263.73,0 866.29,67.42 866.29,-129.93 0,-690.32 -1126.16,-531.95 -1126.16,259.87z"/>
   <path class="fil1" d="M9413.54 19953.13c0,452.87 693.01,338.31 693.01,736.34 0,156 -291.12,284.38 -488.11,54.98 -124.73,-145.28 -48.2,-139.16 -161.56,-184.92 -333.15,592.98 866.25,582.49 866.25,0 0,-240.59 -144.09,-290.97 -317.47,-375.53 -888.38,-433.26 96.55,-760.54 144.22,-187.54l137.33 -345.26c-478.74,-219.89 -873.67,29.34 -873.67,301.93z"/>
   <path class="fil1" d="M25526.27 19953.13c0,452.87 693.03,338.31 693.03,736.34 0,156 -291.17,284.38 -488.13,54.98 -124.74,-145.28 -48.18,-139.16 -161.59,-184.92 -333.14,592.98 866.29,582.49 866.29,0 0,-435.28 -693.03,-392.61 -693.03,-693.02 0,-206.36 482.65,-316.08 519.77,129.95l137.36 -345.26c-478.77,-219.89 -873.7,29.34 -873.7,301.93z"/>
   <path class="fil1" d="M18682.69 19953.13c0,452.87 693.03,338.31 693.03,736.34 0,156 -291.16,284.38 -488.13,54.98 -124.74,-145.28 -48.19,-139.16 -161.59,-184.92 -333.14,592.98 866.29,582.49 866.29,0 0,-435.28 -693.04,-392.61 -693.04,-693.02 0,-206.36 482.68,-316.08 519.8,129.95l137.34 -345.26c-478.75,-219.89 -873.7,29.34 -873.7,301.93z"/>
   <path class="fil1" d="M24400.13 19953.13c0,452.87 693.02,338.31 693.02,736.34 0,156 -291.16,284.38 -488.14,54.98 -124.74,-145.28 -48.22,-139.16 -161.57,-184.92 -333.16,592.98 866.27,582.49 866.27,0 0,-435.28 -693.03,-392.61 -693.03,-693.02 0,-206.36 482.66,-316.08 519.78,129.95l137.36 -345.26c-478.76,-219.89 -873.69,29.34 -873.69,301.93z"/>
   <path class="fil1" d="M32976.25 19953.13c0,452.87 693.03,338.31 693.03,736.34 0,156 -291.16,284.38 -488.11,54.98 -124.76,-145.28 -48.21,-139.16 -161.59,-184.92 -333.18,592.98 866.27,582.49 866.27,0 0,-435.28 -693.04,-392.61 -693.04,-693.02 0,-206.36 482.66,-316.08 519.78,129.95l137.33 -345.26c-478.74,-219.89 -873.67,29.34 -873.67,301.93z"/>
   <path class="fil1" d="M15867.3 20299.64c0,777.54 748.66,840.81 1093.03,483.39 265.43,-275.49 -210.22,36.37 -399.99,36.37 -528.17,0 -654.57,-1126.14 43.31,-1126.14 155.3,0 246.74,188.74 259.87,346.51l86.62 0c30.3,-129.96 74.73,-246.74 86.63,-389.84 -198.44,-46.22 -175.21,-86.61 -433.12,-86.61 -395.87,0 -736.35,340.47 -736.35,736.32z"/>
   <path class="fil1" d="M29467.82 20299.64c0,777.54 748.66,840.81 1093.04,483.39 163.71,-169.91 1.55,-97.82 -23.24,-89.43 -87.11,29.45 -202.9,125.8 -376.76,125.8 -528.16,0 -654.56,-1126.14 43.31,-1126.14 155.3,0 246.76,188.74 259.88,346.51l86.63 0c30.28,-129.96 74.72,-246.74 86.62,-389.84 -198.44,-46.22 -175.21,-86.61 -433.13,-86.61 -395.87,0 -736.35,340.47 -736.35,736.32z"/>
   <path class="fil1" d="M14134.75 19736.57l173.27 0c0,449.9 -105.7,1256.08 216.56,1256.08 200.93,0 347.55,-56.45 433.11,-173.25 -363.15,-150.01 -389.8,422.4 -389.8,-1082.83 307.19,0 286.2,65.85 389.8,-129.94l-389.8 0c35.59,-152.73 43.31,-142.31 43.31,-346.51 -88.29,23.58 -452.87,388.14 -476.45,476.45z"/>
   <path class="fil1" d="M15044.33 19736.57l0 86.62c285.82,6.38 216.6,-18.62 216.6,866.28 0,208.86 -136.31,38.11 -216.6,259.89l693.03 0c-37.41,-103.33 4.11,-34.87 -74.27,-98.99 -41.44,-33.88 -96.8,-50.2 -142.28,-74.26l0 -1212.79c-179,41.69 -263.57,123.65 -476.48,173.25z"/>
   <path class="fil1" d="M30767.23 19736.57l0 86.62c285.82,6.38 216.59,-18.62 216.59,866.28 0,175.56 -28.85,69.66 -89.56,127.03 -144.19,136.29 -55.37,-65.11 -127.03,132.86l693.03 0c-37.38,-103.33 4.11,-34.87 -74.26,-98.99 -41.45,-33.88 -96.83,-50.2 -142.3,-74.26l0 -1212.79c-178.99,41.69 -263.56,123.65 -476.47,173.25z"/>
   <path class="fil2" d="M31806.78 20602.84c0,100.12 48.41,259.89 129.95,259.89 381.1,0 346.49,-314.98 346.49,-693.02 -166.04,87.87 -476.44,189.97 -476.44,433.13z"/>
   <path class="fil2" d="M26955.65 20039.77c209.48,0 563.05,46.39 563.05,-86.64 0,-303.08 -520.67,-422.88 -563.05,86.64z"/>
   <path class="fil2" d="M13225.16 20039.77c209.52,0 563.08,46.39 563.08,-86.64 0,-303.08 -520.66,-422.88 -563.08,86.64z"/>
   <path class="fil2" d="M20848.37 20039.77c209.52,0 563.11,46.39 563.11,-86.64 0,-303.08 -520.7,-422.88 -563.11,86.64z"/>
   <path class="fil1" d="M26955.65 19303.43c169.34,-14.1 130.89,4.75 204.26,-142.24 23.84,-47.79 33.97,-80.06 54.29,-118.95l30.47 -56.16c66.21,-104.83 5.8,-13.03 57.48,-72.47 73.94,317.38 146.2,376.76 303.18,389.82 -76.21,-144.07 -218.76,-469.5 -346.5,-563.07 -102.29,193.34 -199.5,367.08 -303.18,563.07z"/>
   <path class="fil1" d="M13355.12 19433.37c148.65,-39.69 180.77,-106.98 259.89,-216.54 78.89,-109.25 143.82,-151.31 216.54,-259.91l-303.18 0c-22.46,96.3 -131.77,389.92 -173.25,476.45z"/>
   <path class="fil1" d="M15217.58 19043.54c0,246.14 303.23,182.68 303.23,43.32 0,-246.13 -303.23,-182.68 -303.23,-43.32z"/>
   <path class="fil1" d="M30940.51 19043.54c0,246.14 303.19,182.68 303.19,43.32 0,-246.13 -303.19,-182.68 -303.19,-43.32z"/>
   <path class="fil0" d="M9396.88 28836.54c-317.78,200.84 -651.17,425.4 -1019.01,575.47 -787.39,321.2 -737.26,146.84 -1363.42,74.51 135.55,120.98 148.12,57.77 180.65,225.12 -90.04,123.33 -77.36,102.53 -255.14,128.58 -108.16,15.84 -208.35,25.39 -306.97,38.38 -3410.97,449.99 -4802.17,-2128.45 -4013.16,-3322.41 158.9,-240.45 468.76,-540.75 857.23,-586.36 818.29,-96.04 1006.52,465.63 825.45,600.67 -202.85,72.6 -304.63,-49.62 -483.24,103.43 -428.42,367.12 329.38,961.94 788.16,526.82 231.01,-219.09 180.69,-636.51 45.22,-914.71 -718.16,-1474.47 -3311.84,39.46 -2071.68,2156.9 1172.68,2002.25 4178.13,1951.49 6216.39,912.44 308.14,-157.07 519.33,-301.88 794.65,-451.79 -64.04,-72.32 129.88,-94.91 -195.13,-67.05z"/>
   <path class="fil0" d="M28224.43 26594.24c1096.88,-8.82 1642.87,-81.1 2667.2,394.67 188.31,87.46 551.87,316.93 713.68,357.98l-158.4 -180.56c-405.11,-331.2 -942.21,-630.92 -1449.6,-799.55 -351.72,-116.9 -631.07,-152.86 -1043.12,-205.98 -483.3,-62.28 -729.96,35.23 -1172.24,48.29 -57.23,245.53 77.32,162.43 169,279.92 111.07,142.35 69.83,114.84 273.48,105.23z"/>
   <path class="fil0" d="M28510.21 29028.31c237.94,101.85 544.8,300.97 790.46,416.06 2073.96,971.63 5067.6,916.77 6102.74,-1116.18 849.83,-1669.08 -570.3,-2916.38 -1571.99,-2570.16 -282.12,97.53 -505.41,323.11 -609.25,603.15 -140.82,379.86 -107.76,723.61 170.19,898.45 539.25,339.22 1096.23,-303.88 690.59,-602.19 -230.39,-169.43 -540.13,83.35 -513.47,-278.73 30.58,-415.88 1091.79,-759.78 1719.07,153.44 777.09,1131.33 -459.5,3781.08 -3997.09,3350.39 -105.55,-12.84 -196.77,-22.66 -304.55,-38.74 -172.45,-25.73 -188.89,-37.37 -255.18,-132.16 35.16,-194.72 20.82,-77.31 66.46,-134.43l113.37 -89.12c-651.9,78.43 -606.79,236.63 -1331.36,-60.57 -422.04,-173.1 -654.16,-379.16 -1001.57,-545.69 -90.85,58.84 -96.9,-110.68 -68.42,146.48z"/>
   <path class="fil0" d="M6942.7 27801.09c-273.53,-23.15 -490.48,152.95 -577.34,335.16 -60.51,126.89 -76.22,238.33 -69.57,404.89l94.19 352.28c-45.82,-556.6 47.47,-1079.72 656.34,-925.38 19.42,297.78 -86.77,168.8 -59.29,494.3 558.3,287.07 695.46,-598.6 -44.33,-661.25z"/>
   <path class="fil0" d="M28117.08 31652.18l-42.9 -119.11c-218.71,143.04 -13.57,-60.74 -105.07,90.26l147.97 28.85z"/>
   <path class="fil0" d="M19329 31612.98c162.57,613.24 905.61,1515.62 1772.54,1379.32 1033.45,-162.48 1028.44,-1332.72 142.51,-1588.89 369.36,874.27 -697.1,1260.64 -1466.68,679.84 -191.79,-144.73 -310.12,-373.45 -448.37,-470.27z"/>
   <path class="fil0" d="M8287.38 30907.96c124.83,175.59 26.16,267.33 216.6,334.68 478.43,87.06 342.24,-835.49 -328.13,-517.68 -551.98,261.68 -425.33,859.94 -129.89,1038.38 -53.1,-197.86 -141.57,-256.29 -114.67,-536.81 22.1,-230.43 111.16,-315.24 356.09,-318.57z"/>
   <path class="fil0" d="M18655.82 31513.65c-18.37,-70.32 -36.25,-67.25 16.67,-54.75l0.72 0.15 0.7 0.17 0.72 0.17 0.71 0.17 0.16 0.03 0.56 0.12 0.73 0.17 0.75 0.17 0.73 0.17 0.65 0.16 0.14 0.02 0.75 0.17 0.78 0.18 0.77 0.17 0.82 0.17 0.34 0.07 0.46 0.11 0.78 0.17 0.82 0.18 0.84 0.17 0.85 0.17 0.04 0.02 0.8 0.17 0.85 0.17 0.85 0.17 0.89 0.19 0.54 0.12 0.33 0.05 0.88 0.17 0.91 0.19 0.92 0.19 0.89 0.17 0.2 0.05 0.73 0.13 0.92 0.19 0.94 0.17 0.97 0.19 0.77 0.15 0.19 0.02 0.95 0.19 1.01 0.17 0.99 0.19 0.97 0.18 0.43 0.07 0.59 0.12 1.03 0.17 1.02 0.19 1.04 0.17 1.04 0.17 0 0.02 1.04 0.17 1.06 0.19 1.07 0.17 1.09 0.18 0.67 0.11 0.42 0.06 1.11 0.19 1.09 0.17 1.13 0.19 1.12 0.17 0.24 0.05 0.91 0.14 1.14 0.17 1.18 0.17 1.17 0.19 0.92 0.12 0.24 0.05 1.21 0.17 1.2 0.17 1.19 0.17 1.21 0.17 0.51 0.07 0.73 0.1 1.25 0.17 1.23 0.17 1.26 0.17 1.29 0.17c150.07,19.63 39.87,-64.47 121.08,76.27l-231.8 -2.86 -0.11 0 -0.06 0.15c-200.98,637.17 -829.78,1512.73 -1715.9,1459.09 -1028.35,-62.27 -1236.37,-1323.23 -226.33,-1599.18 -101.18,251 -122.27,531.83 58.28,727.25 314.64,340.52 992.8,280.08 1435.29,-67.23 221.66,-173.95 267.63,-343.32 448.66,-519.93l0.17 -0.15c10.21,-9.95 20.82,-19.9 31.9,-29.89z"/>
   <path class="fil0" d="M29951.5 31655.01c330.32,-375.56 98.19,-798.95 -270.55,-937.4 -579.18,-217.48 -708.51,550.4 -256.44,512.43 130.03,-51.46 66.84,-183.38 216.56,-348.71 555.96,38.67 359.76,687.78 310.43,773.68z"/>
   <path class="fil0" d="M30941.04 28004.38c-13.79,13.62 -71.22,-69.93 -34.2,148.18 400.17,412.28 -478.72,650.29 -498.72,84.32 -12.7,-359.11 585.1,-641.71 957.39,-383.37 542.79,376.64 362.17,1328 -324.34,1661.14 -101.87,49.43 -185.67,65.65 -257.78,153.68 70.8,126.69 7.95,88.22 203.57,128.16 74.04,15.11 227.87,28.25 303.8,37.24 673.03,79.45 1233.05,64.09 1895.27,-89.67 1809.79,-420.22 2698.96,-2160.88 2097.81,-3123.31 -746.99,-1195.95 -1983.49,-349.73 -1614.56,-93.83 223.01,55.31 334.76,-29.02 490.67,139.82 418.98,453.65 -400.64,1012.68 -877.55,573.93 -407.98,-375.29 -153.95,-1392.31 677.74,-1572.04 1087.62,-235.03 2555.83,1310.39 1241.43,3060.27 -771.7,1027.43 -2127.65,1539.11 -3965.94,1339.14 -1568.71,-170.63 -2813.15,-979.84 -3743.02,-1692.52l-146.84 -17.36c-26.53,46.47 -32.24,16.75 -35.33,105.22 854.49,1567.88 -113.47,2000.65 565.85,2885.69 55.28,72.06 69.96,71.46 124.16,131.17 31.67,34.91 48.85,51.48 59.43,62.05l57.2 109.89c289.68,163.4 739.85,541.96 1334.09,343.39 519.66,-173.66 763.9,-976.77 233.23,-1057.07l-45.34 65.6c-41.13,72.86 -148.07,414.55 -403.92,242.97 -193.82,-129.99 -171.11,-441.58 37.41,-560.8 420.78,-240.59 961.1,284.42 882.43,677.17 -140.21,699.92 -1150.56,1245.79 -2185.87,259.89 -230.15,-177.31 -276.02,-467.87 -450.41,-586.77 -221.61,63.38 -132.03,152.15 -437.77,488.49 -464.94,511.48 -1209.24,949.87 -2003.13,799.53 -923,-174.77 -1842.11,-940.38 -1875.71,-1922.31 -33.42,-976.59 953.14,-1925.59 2008.37,-1547.43 1275.13,456.94 600.27,2221.06 -141.2,2136.79 131.48,-232.2 315.76,-782.31 126.82,-1081.31 -190.57,-301.63 -679.92,-343.83 -980.64,-165.12 -722.04,429.07 -458.65,1472.43 42.08,1927.58 1219.36,1108.29 3147.23,-124.78 3153.5,-1744.49 4.25,-1104.83 -498.34,-1758.04 -1142.32,-2344.27 -350.8,-319.36 -629.01,21.3 -1490.18,385.06 -1146.5,484.28 -2685.95,966.99 -3983.23,582.32 -219.02,-64.93 -334.74,-164.35 -596.59,-149.28 -227.68,189.54 -533.83,817.04 -471.41,1259.38 33.99,240.57 4.33,470.38 -137.89,653.71 -163.63,210.85 -300.77,213.42 -532.58,328.35 -21.19,720.33 917.15,2034.18 1911.61,1570.69 414.48,-193.17 284.42,-498.93 205.99,-877.15 370.39,60.72 770.93,441.29 784.42,848.26 25.99,784.24 -1481.87,1482.87 -2445.57,-57.1 -270.51,-432.24 -145.08,-465.9 -354.11,-536.98 -43.68,60.36 -29.16,15.5 -53.27,114.7 -72.58,299.04 114.69,704.66 200.15,975.36 86.99,275.66 234.27,746.62 244.88,1056.66 23.6,691.53 -303.76,1593.5 -586.81,2016.02 -289.33,-321.9 -606.36,-1386.32 -589.7,-2016.02 17.39,-657.52 517.6,-1619.48 456.09,-1990.14 -45.44,-274.08 76.56,218.55 -23.13,-80.74l-38.04 -75.23c-223.25,64.11 -85.29,81.11 -345.86,501.96 -977.07,1578.13 -2435.1,890.62 -2463.03,127.25 -14.85,-406.17 436.28,-880.73 793.59,-884 -431.69,717.31 409.65,1219.36 1118.35,856.09 401.53,-205.8 1013.01,-921.74 996.16,-1546.82 -218.67,-115.04 -792.21,-224.58 -672.96,-991.61 76.92,-494.47 -268.34,-960.22 -451.04,-1256.31 -598.8,-16.62 -1462.81,895.09 -4565.4,-413.73 -1433.71,-604.8 -1188.6,-778.51 -1849.34,-82.43 -418.51,440.87 -835.71,1098.06 -837.52,1983.12 -3.29,1586.61 1874.91,2900.91 3124.07,1818.35 501.28,-434.42 830.62,-1429.64 144.51,-1919.87 -295.34,-211.04 -759.74,-196.89 -997.83,70.89 -299.25,336.54 20.13,861.55 66.2,1150.17 -410.87,-31.66 -813.25,-572.72 -845.97,-999.74 -45.38,-591.41 324.3,-999.49 732.36,-1151.72 1043.13,-389.12 2058.55,611.72 2004.18,1540.94 -91.97,1572.34 -2364.8,2825.94 -3858.22,1159.95 -87.06,-97.14 -135.91,-145.56 -213.29,-265.53 -97.82,-151.64 -72.68,-197.32 -238.54,-254.86 -144.4,82.49 -120.48,141.09 -208.09,285.87 -559.43,924.64 -1779.24,1153.97 -2294.29,413.74 -367.02,-527.5 -37.29,-1149.81 550.9,-1119.88 267.32,13.6 502.31,260.59 337.11,551.58 -74.29,130.83 -332.32,271.5 -470.28,-21.93l-81.03 -195.32c-847.34,159.43 265.62,2011.15 1701.51,508.59 790.05,-826.76 -65.99,-1203.07 504.84,-2651.34l161.59 -349.54c20.84,-130.08 -2.34,-104.78 -105.68,-134.2 -918.67,695.41 -2188.34,1550.8 -3701.08,1732.05 -1838.76,220.34 -3274.8,-243.12 -4064.05,-1295.3 -1366.59,-1821.83 153.27,-3290.03 1190.98,-3091.21 848.15,162.51 1138.37,1266.24 661.31,1609.39 -304.31,218.88 -769.56,103.52 -900.49,-162.46 -104.97,-213.25 5.18,-407.77 120.2,-492.99 169.85,-125.82 289.66,-61.49 505.39,-96.99 -23.21,-711.73 -1176.29,-745.63 -1696.54,118.2 -579.36,961.99 325.41,2684.93 2084.09,3095.41 424.29,99.02 2246.91,270.26 2436.24,-69.33l-77.03 -64.93c-186.98,-118.09 -539.66,-188.24 -738.25,-663.07 -189.08,-452 -69.71,-909 262.17,-1104.04 378,-222.16 973.69,67.74 923.99,439.21 -22.51,168.45 -242.54,376.21 -448.56,282.29 -261.78,-119.33 -79.18,-332.67 -54.65,-549.36 -736.46,-134.6 -792.56,877.41 -184.88,1298.92 1008.34,699.43 2366.45,-370.94 3257.14,-1008.11l1224.62 -855.39c359.79,-241.15 -12.99,-327.77 -440.95,-484.11 -255.5,-93.32 -464.89,-145.24 -735.52,-220.15 -1010.42,-279.68 -2244.2,-148.82 -3190.45,328.35 -260.78,131.5 -992.57,549.28 -1101.78,718.17 234.42,-587.68 1616.06,-1348.42 2404.85,-1532.02 1241.87,-289.08 2348.16,-39.7 3359.11,359.99 1122.93,443.99 486.03,210.75 1577.12,70.73 582.09,-74.68 1305.77,-52.48 1859.75,48.87 1955.27,357.69 2432.95,1274.8 2690.73,1300.88 309.23,-27.25 755.84,-433.45 888.07,-640.33 -129.43,349.01 -666.84,736.3 -689.24,801.44 -53.34,155.11 199.53,437.22 319.65,734.11 195.71,483.87 305.65,115.26 697.58,103.22 261.89,-8.05 297.97,141.47 603.13,131.89 100.32,-128.46 144.5,-325.65 232.66,-476.18 100.31,-171.27 216.83,-252.18 214.48,-493.04 -181.2,-234.79 -514.87,-393.06 -650.17,-722.8 868.04,912.52 913.48,494.78 1420.08,120.75 1063.41,-785.16 2642.29,-1078.36 3983.12,-909.32 294.86,37.17 626.56,168.55 822.03,180.79 610.05,38.23 2618.38,-1724.95 5455.87,-60.14 274.94,161.32 942.79,696.48 1022.61,940.58 -185.3,-181.43 -789.05,-527.4 -1102.63,-678.41 -1248.33,-601.04 -2577.41,-563.05 -3851.11,-115.81l-500.46 191.35c-190.18,110.2 -71.64,-11.29 -132.52,143.41 92.11,187.96 497.97,381.41 673.29,510.44 234.83,172.81 452.62,322.67 682,487.24 854.45,613.15 2233,1703.98 3230.78,1054.7 222.56,-144.83 438.27,-345.42 463.2,-709.88 26.79,-391.66 -174.92,-661.62 -571.17,-624.19zm-12169.45 2146.56c619.77,283.73 924.11,-652.16 392.67,-883.4 -597.53,-260.01 -992.19,608.92 -392.67,883.4zm-5986.77 -3081.45c120.21,151.43 777.09,407.3 953.02,483.74 350.96,152.48 692.08,283.76 1068.03,405.88 608.22,197.55 1927.7,466.8 2576.32,191.25 -16.71,-208.41 -197.06,-293.36 -342.25,-392.2 -1096.35,-746.23 -2672.55,-1094.75 -3990.94,-821.37 -175.88,36.47 -182.61,30.11 -264.18,132.7zm7756 1087.68c1127.34,404.22 3033.62,-304.16 4121.47,-822.89 82.42,-39.31 154.21,-65.97 242.99,-103.47 197.07,-83.26 168.62,-42.15 205.34,-227.47 -822.51,-228.33 -1795.3,-194.16 -2637.73,40.7 -412.39,114.99 -747.56,240.04 -1098.04,419.84l-689.42 437.8c-118.88,94.17 -128.95,68.92 -144.61,255.49z"/>
  </g>
 </g>
</svg>
